<svg xmlns="http://www.w3.org/2000/svg" viewBox="0 0 100 100">
  <!-- Background -->
  <circle cx="50" cy="50" r="50" fill="#E8F5E9"/>

  <!-- Soil layer -->
  <rect x="8" y="70" width="84" height="20" rx="4" fill="#8D6E63"/>

  <!-- Depth indicator lines in soil -->
  <line x1="16" y1="76" x2="84" y2="76" stroke="#6D4C41" stroke-width="1.2" stroke-dasharray="4,3"/>
  <line x1="16" y1="82" x2="84" y2="82" stroke="#6D4C41" stroke-width="1.2" stroke-dasharray="4,3"/>

  <!-- Grass blades coming from soil -->
  <path d="M32 70 C32 58 28 46 24 40 C26 50 30 62 32 70 Z" fill="#2E7D32"/>
  <path d="M42 70 C42 55 38 43 36 36 C38 47 40 59 42 70 Z" fill="#388E3C"/>
  <path d="M50 70 C50 52 54 40 58 33 C56 44 52 57 50 70 Z" fill="#43A047"/>
  <path d="M60 70 C60 57 64 45 68 39 C66 49 62 62 60 70 Z" fill="#4CAF50"/>
  <path d="M50 70 C46 60 36 54 28 52 C36 56 46 64 50 70 Z" fill="#66BB6A"/>
  <path d="M50 70 C54 60 64 54 72 52 C64 56 54 64 50 70 Z" fill="#81C784"/>

  <!-- Thermometer -->
  <rect x="46" y="20" width="8" height="32" rx="4" fill="#fff" stroke="#E53935" stroke-width="2"/>
  <rect x="48" y="38" width="4" height="16" rx="2" fill="#E53935"/>
  <circle cx="50" cy="56" r="7" fill="#E53935"/>
  <circle cx="50" cy="56" r="4" fill="#EF9A9A"/>
</svg>
