<svg xmlns="http://www.w3.org/2000/svg" viewBox="0 0 100 100">
  <!-- Calendar body -->
  <rect x="12" y="24" width="76" height="64" rx="8" fill="none" stroke="#1E88E5" stroke-width="5"/>
  <!-- Blue header bar -->
  <rect x="12" y="24" width="76" height="20" rx="8" fill="#1E88E5"/>
  <rect x="12" y="36" width="76" height="8" fill="#1E88E5"/>
  <!-- Binding rings -->
  <rect x="30" y="14" width="7" height="18" rx="3.5" fill="#1565C0"/>
  <rect x="63" y="14" width="7" height="18" rx="3.5" fill="#1565C0"/>
  <!-- Date dots: 2x4 grid -->
  <circle cx="28" cy="58" r="4" fill="#90A4AE"/>
  <circle cx="40" cy="58" r="4" fill="#90A4AE"/>
  <circle cx="52" cy="58" r="4" fill="#90A4AE"/>
  <circle cx="64" cy="58" r="4" fill="#90A4AE"/>
  <circle cx="28" cy="72" r="4" fill="#90A4AE"/>
  <circle cx="40" cy="72" r="4" fill="#90A4AE"/>
  <circle cx="52" cy="72" r="4" fill="#90A4AE"/>
  <!-- Blue water drop as highlighted date -->
  <path d="M64 65 Q64 57 64 55 Q58 63 58 68 Q58 73 64 73 Q70 73 70 68 Q70 63 64 55 Z" fill="#42A5F5"/>
</svg>
