<svg xmlns="http://www.w3.org/2000/svg" viewBox="0 0 100 100">
  <!-- Main leaf / sprout -->
  <path d="M50 85 Q50 60 50 45" stroke="#388E3C" stroke-width="6" stroke-linecap="round" fill="none"/>
  <!-- Left leaf -->
  <path d="M50 58 Q36 50 28 36 Q40 34 50 46" fill="#4CAF50"/>
  <!-- Right leaf -->
  <path d="M50 58 Q64 50 72 36 Q60 34 50 46" fill="#66BB6A"/>
  <!-- Top sprout tip -->
  <path d="M50 45 Q44 34 42 22 Q52 26 50 38" fill="#43A047"/>
  <!-- Nutrient dots scattered around the base -->
  <circle cx="24" cy="72" r="4" fill="#FDD835"/>
  <circle cx="36" cy="80" r="3" fill="#F9A825"/>
  <circle cx="50" cy="88" r="3.5" fill="#FDD835"/>
  <circle cx="64" cy="80" r="3" fill="#F9A825"/>
  <circle cx="76" cy="72" r="4" fill="#FDD835"/>
  <circle cx="18" cy="60" r="2.5" fill="#A5D6A7"/>
  <circle cx="82" cy="60" r="2.5" fill="#A5D6A7"/>
  <!-- Soil layer -->
  <rect x="8" y="82" width="84" height="12" rx="5" fill="#8D6E63"/>
</svg>
