<svg xmlns="http://www.w3.org/2000/svg" viewBox="0 0 100 100">
  <!-- Cloud body -->
  <path d="M22 58 Q14 58 14 50 Q14 42 22 42 Q22 34 30 32 Q36 26 46 28 Q52 22 60 24 Q72 24 74 34 Q82 34 84 42 Q88 50 82 56 Q78 60 72 58 Z" fill="none" stroke="#90A4AE" stroke-width="6" stroke-linecap="round" stroke-linejoin="round"/>
  <path d="M22 58 Q14 58 14 50 Q14 42 22 42 Q22 34 30 32 Q36 26 46 28 Q52 22 60 24 Q72 24 74 34 Q82 34 84 42 Q88 50 82 56 Q78 60 72 58 Z" fill="#CFD8DC"/>
  <!-- Rain streaks -->
  <line x1="28" y1="68" x2="23" y2="82" stroke="#42A5F5" stroke-width="3.5" stroke-linecap="round"/>
  <line x1="41" y1="68" x2="36" y2="82" stroke="#1E88E5" stroke-width="3.5" stroke-linecap="round"/>
  <line x1="54" y1="68" x2="49" y2="82" stroke="#42A5F5" stroke-width="3.5" stroke-linecap="round"/>
  <line x1="67" y1="68" x2="62" y2="82" stroke="#1E88E5" stroke-width="3.5" stroke-linecap="round"/>
</svg>
